<?xml version="1.0" encoding="UTF-8"?>
<svg id="Layer_2" xmlns="http://www.w3.org/2000/svg" viewBox="0 0 1000.46 357.1">
  <defs>
    <style>
      .cls-1 {
        fill: #eb5f1b;
      }

      .cls-2 {
        fill: #1e293b;
      }
    </style>
  </defs>
  <g id="Layer_1-2" data-name="Layer_1">
    <g>
      <path class="cls-1" d="M217.42,304.74c5.86,8.33,11.2,15.92,16.83,23.93-6.96,2.71-13.39,5.22-19.82,7.72-11.91,4.64-23.86,9.19-35.72,13.97-6.99,2.81-13.73,2.93-20.77.04-47.46-19.49-94.96-38.86-142.44-58.3-2.45-1-4.86-2.19-7.08-3.63C2.88,284.88,0,279.73,0,273.02c.01-65.14,0-130.29.03-195.43,0-8.57,4.19-14.51,12.16-17.65,31.2-12.29,62.41-24.53,93.62-36.79,18.23-7.16,36.48-14.29,54.69-21.52,5.55-2.2,10.92-2.15,16.46.01,51.05,19.87,102.11,39.69,153.17,59.52.31.12.62.23.93.35,9.46,3.76,10.12,4.75,10.15,15.12.04,14.66.08,29.32.12,43.98,0,1.81,0,3.62,0,6.31-9.37-3.75-18.07-7.23-27.1-10.85v-21.54c-44.17,18.03-87.77,35.82-131.44,53.64v170.13c11.73-4.6,23.07-9.04,34.63-13.58ZM154.88,148.71c-42.88-17.85-85.44-35.56-128.25-53.39-.06,1.36-.13,2.18-.13,3.01-.02,53.98-.03,107.96-.03,161.94,0,5.03.54,5.65,5.91,7.84,34.9,14.21,69.79,28.44,104.7,42.65,5.82,2.37,11.68,4.65,17.8,7.08v-169.13ZM286.18,75.83c-.42-.44-.6-.78-.88-.89-37.71-14.75-75.44-29.47-113.14-44.24-2.79-1.09-5.28-1.06-8.1.05-29.15,11.57-58.34,23.04-87.53,34.54-8.45,3.33-16.92,6.63-25.99,10.19,1.3.56,1.87.81,2.44,1.04,37.54,15.19,75.1,30.35,112.59,45.65,2.55,1.04,4.42.31,6.58-.55,23.26-9.36,46.52-18.7,69.79-28.04,14.72-5.91,29.44-11.81,44.23-17.75Z"/>
      <path class="cls-1" d="M291.18,357.1c-6.45-8.58-12.67-16.39-18.38-24.55-16.21-23.18-32.39-46.38-48.21-69.83-5.96-8.83-10.13-18.59-11.72-29.38-2.98-20.18,1.45-38.66,12.15-55.76,13.46-21.51,33.23-33.03,58.23-35.58,41.94-4.27,76.49,23.87,84.24,64.22,4.06,21.15.12,40.92-11.48,58.73-13.53,20.76-27.96,40.94-42.19,61.24-7.15,10.21-14.72,20.12-22.65,30.9ZM326.08,220.24c-.1-20.45-15.92-36.86-35.5-36.82-19.42.04-35.25,17.09-35.12,37.84.11,18.88,16.84,35.83,35.24,35.82,18.8,0,36.63-19.18,35.38-36.84Z"/>
      <path class="cls-2" d="M892.84,97.96c-3.4-6.52-7.55-12.67-9.96-19.45-6.67-18.76,3.75-38.06,22.91-43.49,11.24-3.19,22.28-2.6,33.21,1.67,22.17,8.67,26.03,38.09,11.22,53.23-4.8,4.91-10.78,8.66-16.46,13.14,7.26,7.91,14.86,16.18,23.01,25.05,2.31-5.47,4.71-10.21,6.31-15.2,1.55-4.87,2.28-10,3.44-15.33h26.64c-1.82,18.3-8.6,34.24-18.53,49.32,8.56,10.12,17.19,20.35,25.83,30.57-.12.36-.25.71-.37,1.07-1.9,0-3.8,0-5.69,0-8.5,0-17-.11-25.49.06-2.65.05-4.36-.84-5.83-2.92-2.11-2.97-4.42-5.81-6.86-8.98-8.3,6.84-17.64,11.19-28,13.32-11.86,2.44-23.55,1.67-34.81-2.69-15.4-5.97-23.84-17.9-26.03-33.82-2.23-16.18,4.35-29.25,16.78-39.46,2.91-2.39,6.19-4.34,8.69-6.07ZM910.59,115.35c-5.13,3.05-9.46,6.59-12.21,11.74-6.65,12.43-.2,26.53,13.3,28.94,10.36,1.85,19.35-1.08,27.19-8.05-9.45-10.91-18.8-21.7-28.27-32.62ZM918.68,85.33c5.73-3.55,10.61-7.17,12.73-13.38,1.88-5.49.13-10.87-4.29-13.52-5.16-3.09-12.72-2.42-16.68,1.49-3.72,3.67-4.17,8.96-.7,14.1,2.59,3.82,5.71,7.28,8.93,11.32Z"/>
      <path class="cls-2" d="M416.45,34.89c1.16-.17,1.96-.39,2.76-.38,19.48.17,39.03-.52,58.44.78,21.93,1.48,37.96,12.57,43.16,34.22,6.02,25.02-3.95,54.31-39.55,59.87-10.94,1.71-22.12,1.94-33.58,2.88v45.82h-31.24V34.89ZM447.65,105.11c7.05,0,13.67.1,20.28-.05,2.46-.06,4.96-.53,7.36-1.12,10.34-2.55,16.66-10.69,16.4-20.93-.29-11.43-6.28-19.49-17.14-21.15-8.75-1.34-17.72-1.27-26.89-1.85v45.1Z"/>
      <path class="cls-2" d="M858.46,178.37h-34.16c-9.18-13.84-18.37-27.69-27.77-41.85-2.9,3.18-5.96,6.23-8.6,9.59-1,1.28-1.44,3.3-1.47,4.99-.15,7.33-.05,14.66-.04,21.99,0,1.62,0,3.24,0,5.16h-29.61V34.92h29.33v79.22c.28.15.57.29.85.44,1.97-2.3,3.99-4.56,5.9-6.91,9.11-11.26,18.16-22.57,27.33-33.79.97-1.19,2.51-2.68,3.81-2.7,10.6-.22,21.2-.12,32.97-.12-13.23,16.29-25.76,31.72-38.51,47.43,13.07,19.59,26.25,39.32,39.98,59.9Z"/>
      <path class="cls-2" d="M870.39,351.68h-29.3v-142.36h29.56v77.86c.6.37,1.2.73,1.81,1.1.59-1.11,1.02-2.34,1.79-3.3,9.8-12.21,19.61-24.41,29.55-36.5,1.15-1.39,3.07-2.98,4.68-3.02,10.14-.27,20.3-.14,31.95-.14-13.04,15.91-25.39,30.98-38.01,46.37,13.05,19.6,26.18,39.32,39.78,59.74h-34.65c-8.7-13.22-17.63-26.81-26.74-40.65-3.02,3.55-6.17,6.89-8.86,10.57-1.05,1.44-1.46,3.63-1.49,5.49-.16,8.13-.07,16.26-.07,24.85Z"/>
      <path class="cls-2" d="M625.97,178.34h-27.63v-11.71c-13.15,14.86-29.15,16.23-46.11,11.93-14.47-3.67-22.37-14.98-22.46-30.3-.09-14.5,8.36-25.94,22.34-30.1,12.56-3.73,25.58-4.01,38.5-4.99,1.96-.15,3.93-.18,6.3-.29.24-7.09-.02-13.82-6.6-17.82-7.33-4.45-15.15-3.99-22.14.67-3.89,2.59-6.84,6.59-11.22,10.95-6.84-.6-15.04-1.33-23.64-2.09,2.28-14.09,9.04-24.47,21.49-30.3,15.78-7.4,32.29-7.87,48.47-1.68,14.25,5.44,21.9,16.45,22.19,31.88.45,23.99.6,47.98.86,71.97,0,.47-.17.94-.35,1.88ZM596.78,132.08c-9.39.87-18.48,1.43-27.48,2.65-6.18.84-9.84,5.59-9.83,11.34,0,5.93,3.39,10.61,9.55,11.56,4.32.67,9.06.77,13.27-.26,10.49-2.57,15.91-12.15,14.49-25.3Z"/>
      <path class="cls-2" d="M678.76,286.29c-.33-3.59-.29-6.78-.98-9.8-1.8-7.87-10.68-12.42-19.94-10.61-8.18,1.6-13.5,6.72-17.36,14.14-8.27-.59-16.52-1.18-25.17-1.8.06-1.25-.04-2.36.2-3.39,3.47-15.09,12.71-24.99,27.39-29.58,12.83-4.01,25.83-4.32,38.81-.38,16.29,4.95,25.52,16.92,25.68,33.9.2,20,.12,40,.16,60,0,4.13,0,8.26,0,12.77h-27.36v-11.48c-13.87,15.6-30.71,16.88-48.64,11.33-12.67-3.93-20.34-15.61-20.46-28.98-.13-13.81,6.84-24.99,19.72-29.34,7.62-2.57,15.78-3.75,23.8-4.86,7.86-1.09,15.83-1.3,24.14-1.92ZM679.56,306.67c-5.95,0-10.76-.25-15.54.07-4.95.34-9.94.91-14.78,1.98-4.68,1.04-7.43,4.72-7.81,9.23-.42,5.03,1.04,9.28,5.6,11.9,10.58,6.08,25.83.7,29.89-10.75,1.41-3.97,1.79-8.29,2.64-12.43Z"/>
      <path class="cls-2" d="M489.98,234.37v117.15h-29.83v-116.85h-42.82v-25.32h114.32v25.02h-41.67Z"/>
      <path class="cls-2" d="M743.62,107.24h-29.89c-.38-.52-1.01-1.26-1.5-2.08-9.26-15.67-30.52-13.7-38.65,2.73-5.11,10.32-5.25,21.23-1.17,31.98,4.51,11.88,17.25,18.03,28.78,14.18,6.14-2.05,9.68-6.78,12.36-12.64h30.67c-1.1,9.61-5.36,17.45-11.64,24.25-7.5,8.11-17.06,12.58-27.75,14.68-8.25,1.62-16.52,1.62-24.74-.45-20.33-5.11-32.74-18.24-38.08-38.16-3.97-14.78-2.81-29.43,3.38-43.4,10.61-23.93,33.31-32.12,55.19-29.75,14.76,1.6,27.01,7.99,35.77,20.23,3.79,5.3,6.47,11.17,7.27,18.44Z"/>
      <path class="cls-2" d="M797.55,314.48h29.22c-.23,7.32-3.11,13.42-6.98,18.99-8.71,12.52-21.2,19.18-36.02,20.75-7.32.77-15.11.41-22.28-1.22-20.98-4.76-35.97-22.98-38.61-44.55-1.5-12.23-.28-23.95,4.5-35.17,8.22-19.28,25.8-33.03,54.39-31.29,19.63,1.2,37.01,14.06,42.87,32.69.54,1.71.83,3.49,1.32,5.63h-30.1c-.67-.97-1.49-2.18-2.34-3.37-7.62-10.6-21.8-12.35-31.42-3.52-2.86,2.62-5.39,6.05-6.91,9.6-4.15,9.71-4.2,19.84-.57,29.7,5.29,14.37,22.3,20.38,33.84,11.93,3.37-2.47,5.73-6.33,9.09-10.17Z"/>
      <path class="cls-2" d="M564.08,262.5c6.49-15.86,19.91-20.41,38.2-18.04v29.01c-3.41-.35-6.78-.9-10.17-1.01-18.54-.61-26.17,10.05-26.57,25.79-.4,15.81-.09,31.63-.09,47.45,0,1.81,0,3.63,0,5.83h-29.63v-105.71h28.27v16.67Z"/>
    </g>
  </g>
</svg>